{
  "accessors": [
    {
      "name": "tiltrod_bracket_default_0_positions",
      "componentType": 5126,
      "count": 139,
      "min": [
        -0.04662346839904785,
        2.158621072769165,
        -0.6265537142753601
      ],
      "max": [
        0.0011624754406511784,
        2.251991033554077,
        -0.5208929181098938
      ],
      "type": "VEC3",
      "bufferView": 0,
      "byteOffset": 0
    },
    {
      "name": "tiltrod_bracket_default_0_indices",
      "componentType": 5123,
      "count": 834,
      "min": [
        0
      ],
      "max": [
        138
      ],
      "type": "SCALAR",
      "bufferView": 1,
      "byteOffset": 0
    },
    {
      "name": "tiltrod_default_0_positions",
      "componentType": 5126,
      "count": 238,
      "min": [
        -0.05414779111742973,
        1.922419548034668,
        -0.7856990098953247
      ],
      "max": [
        0.003314242698252201,
        2.785540819168091,
        -0.16993598639965057
      ],
      "type": "VEC3",
      "bufferView": 0,
      "byteOffset": 1668
    },
    {
      "name": "tiltrod_default_0_indices",
      "componentType": 5123,
      "count": 1392,
      "min": [
        0
      ],
      "max": [
        237
      ],
      "type": "SCALAR",
      "bufferView": 1,
      "byteOffset": 1668
    },
    {
      "name": "mesh_default_0_positions",
      "componentType": 5126,
      "count": 1506,
      "min": [
        -2.315645217895508,
        1.0042248964309692,
        -0.8540157675743103
      ],
      "max": [
        2.315645217895508,
        4.597301483154297,
        2.0700535774230957
      ],
      "type": "VEC3",
      "bufferView": 0,
      "byteOffset": 4524
    },
    {
      "name": "mesh_default_0_indices",
      "componentType": 5123,
      "count": 9024,
      "min": [
        0
      ],
      "max": [
        1505
      ],
      "type": "SCALAR",
      "bufferView": 1,
      "byteOffset": 4452
    },
    {
      "name": "lgnut_default_0_positions",
      "componentType": 5126,
      "count": 18,
      "min": [
        -0.1622391790151596,
        2.265205144882202,
        -0.03751601278781891
      ],
      "max": [
        -0.1371939480304718,
        2.3461403846740723,
        0.03751601278781891
      ],
      "type": "VEC3",
      "bufferView": 0,
      "byteOffset": 22596
    },
    {
      "name": "lgnut_default_0_indices",
      "componentType": 5123,
      "count": 96,
      "min": [
        0
      ],
      "max": [
        17
      ],
      "type": "SCALAR",
      "bufferView": 1,
      "byteOffset": 22500
    },
    {
      "name": "shortbolt_default_0_positions",
      "componentType": 5126,
      "count": 612,
      "min": [
        -0.043368980288505554,
        1.9998868703842163,
        -0.2013394832611084
      ],
      "max": [
        0.038039155304431915,
        2.0588490962982178,
        -0.1348644644021988
      ],
      "type": "VEC3",
      "bufferView": 0,
      "byteOffset": 22812
    },
    {
      "name": "shortbolt_default_0_indices",
      "componentType": 5123,
      "count": 3660,
      "min": [
        0
      ],
      "max": [
        611
      ],
      "type": "SCALAR",
      "bufferView": 1,
      "byteOffset": 22692
    },
    {
      "name": "smllnut_default_0_positions",
      "componentType": 5126,
      "count": 18,
      "min": [
        -0.03710104152560234,
        1.9964463710784912,
        -0.1976059228181839
      ],
      "max": [
        -0.016664128750562668,
        2.0622894763946533,
        -0.13580478727817535
      ],
      "type": "VEC3",
      "bufferView": 0,
      "byteOffset": 30156
    },
    {
      "name": "smllnut_default_0_indices",
      "componentType": 5123,
      "count": 96,
      "min": [
        0
      ],
      "max": [
        17
      ],
      "type": "SCALAR",
      "bufferView": 1,
      "byteOffset": 30012
    },
    {
      "name": "longbolt_default_0_positions",
      "componentType": 5126,
      "count": 612,
      "min": [
        -0.17226189374923706,
        2.2660579681396484,
        -0.039121344685554504
      ],
      "max": [
        0.16391396522521973,
        2.345287561416626,
        0.039121344685554504
      ],
      "type": "VEC3",
      "bufferView": 0,
      "byteOffset": 30372
    },
    {
      "name": "longbolt_default_0_indices",
      "componentType": 5123,
      "count": 3660,
      "min": [
        0
      ],
      "max": [
        611
      ],
      "type": "SCALAR",
      "bufferView": 1,
      "byteOffset": 30204
    },
    {
      "name": "clamppost_default_0_positions",
      "componentType": 5126,
      "count": 358,
      "min": [
        -0.12999512255191803,
        -1.5289443731307983,
        -0.6441102623939514
      ],
      "max": [
        0.12999512255191803,
        2.350510358810425,
        0.12999512255191803
      ],
      "type": "VEC3",
      "bufferView": 0,
      "byteOffset": 37716
    },
    {
      "name": "clamppost_default_0_indices",
      "componentType": 5123,
      "count": 2160,
      "min": [
        0
      ],
      "max": [
        357
      ],
      "type": "SCALAR",
      "bufferView": 1,
      "byteOffset": 37524
    },
    {
      "name": "dishframe_default_0_positions",
      "componentType": 5126,
      "count": 3839,
      "min": [
        -2.366018533706665,
        0.9545942544937134,
        -0.9004166126251221
      ],
      "max": [
        2.366018533706665,
        4.631228446960449,
        2.0999372005462646
      ],
      "type": "VEC3",
      "bufferView": 0,
      "byteOffset": 42012
    },
    {
      "name": "dishframe_default_0_indices",
      "componentType": 5123,
      "count": 23490,
      "min": [
        0
      ],
      "max": [
        3838
      ],
      "type": "SCALAR",
      "bufferView": 1,
      "byteOffset": 41844
    }
  ],
  "asset": {
    "generator": "obj2gltf",
    "version": "2.0"
  },
  "buffers": [
    {
      "name": "dish",
      "byteLength": 176904,
      "uri": "data:application/octet-stream;base64,"
    }
  ],
  "bufferViews": [
    {
      "name": "bufferView_0",
      "buffer": 0,
      "byteLength": 88080,
      "byteOffset": 0,
      "byteStride": 12,
      "target": 34962
    },
    {
      "name": "bufferView_1",
      "buffer": 0,
      "byteLength": 88824,
      "byteOffset": 88080,
      "target": 34963
    }
  ],
  "materials": [
    {
      "name": "default",
      "pbrMetallicRoughness": {
        "baseColorFactor": [
          0.5,
          0.5,
          0.5,
          1
        ],
        "metallicFactor": 0,
        "roughnessFactor": 1
      },
      "emissiveFactor": [
        0,
        0,
        0
      ],
      "alphaMode": "OPAQUE",
      "doubleSided": false
    }
  ],
  "meshes": [
    {
      "name": "tiltrod_bracket_default",
      "primitives": [
        {
          "attributes": {
            "POSITION": 0
          },
          "indices": 1,
          "material": 0,
          "mode": 4
        }
      ]
    },
    {
      "name": "tiltrod_default",
      "primitives": [
        {
          "attributes": {
            "POSITION": 2
          },
          "indices": 3,
          "material": 0,
          "mode": 4
        }
      ]
    },
    {
      "name": "mesh_default",
      "primitives": [
        {
          "attributes": {
            "POSITION": 4
          },
          "indices": 5,
          "material": 0,
          "mode": 4
        }
      ]
    },
    {
      "name": "lgnut_default",
      "primitives": [
        {
          "attributes": {
            "POSITION": 6
          },
          "indices": 7,
          "material": 0,
          "mode": 4
        }
      ]
    },
    {
      "name": "shortbolt_default",
      "primitives": [
        {
          "attributes": {
            "POSITION": 8
          },
          "indices": 9,
          "material": 0,
          "mode": 4
        }
      ]
    },
    {
      "name": "smllnut_default",
      "primitives": [
        {
          "attributes": {
            "POSITION": 10
          },
          "indices": 11,
          "material": 0,
          "mode": 4
        }
      ]
    },
    {
      "name": "longbolt_default",
      "primitives": [
        {
          "attributes": {
            "POSITION": 12
          },
          "indices": 13,
          "material": 0,
          "mode": 4
        }
      ]
    },
    {
      "name": "clamppost_default",
      "primitives": [
        {
          "attributes": {
            "POSITION": 14
          },
          "indices": 15,
          "material": 0,
          "mode": 4
        }
      ]
    },
    {
      "name": "dishframe_default",
      "primitives": [
        {
          "attributes": {
            "POSITION": 16
          },
          "indices": 17,
          "material": 0,
          "mode": 4
        }
      ]
    }
  ],
  "nodes": [
    {
      "name": "tiltrod_bracket",
      "mesh": 0
    },
    {
      "name": "tiltrod",
      "mesh": 1
    },
    {
      "name": "mesh",
      "mesh": 2
    },
    {
      "name": "lgnut",
      "mesh": 3
    },
    {
      "name": "shortbolt",
      "mesh": 4
    },
    {
      "name": "smllnut",
      "mesh": 5
    },
    {
      "name": "longbolt",
      "mesh": 6
    },
    {
      "name": "clamppost",
      "mesh": 7
    },
    {
      "name": "dishframe",
      "mesh": 8
    }
  ],
  "scene": 0,
  "scenes": [
    {
      "nodes": [
        0,
        1,
        2,
        3,
        4,
        5,
        6,
        7,
        8
      ]
    }
  ]
}
